solid geometry
facet normal 0.000000e+00 0.000000e+00 -1.000000e+00
 outer loop
  vertex -5.000000e+00 4.000000e-01 0.000000e+00
  vertex -5.000000e+00 3.733333e+00 0.000000e+00
  vertex -1.666667e+00 3.733333e+00 0.000000e+00
 endloop
endfacet
facet normal -1.000000e+00 0.000000e+00 0.000000e+00
 outer loop
  vertex -5.000000e+00 3.733333e+00 0.000000e+00
  vertex -5.000000e+00 4.000000e-01 0.000000e+00
  vertex -5.000000e+00 3.733333e+00 1.428571e+00
 endloop
endfacet
facet normal 0.000000e+00 0.000000e+00 -1.000000e+00
 outer loop
  vertex -5.000000e+00 4.000000e-01 0.000000e+00
  vertex -1.666667e+00 3.733333e+00 0.000000e+00
  vertex -1.666667e+00 4.000000e-01 0.000000e+00
 endloop
endfacet
facet normal 0.000000e+00 -1.000000e+00 0.000000e+00
 outer loop
  vertex -5.000000e+00 4.000000e-01 0.000000e+00
  vertex -1.666667e+00 4.000000e-01 0.000000e+00
  vertex -1.666667e+00 4.000000e-01 1.428571e+00
 endloop
endfacet
facet normal -1.000000e+00 0.000000e+00 0.000000e+00
 outer loop
  vertex -5.000000e+00 4.000000e-01 0.000000e+00
  vertex -5.000000e+00 4.000000e-01 1.428571e+00
  vertex -5.000000e+00 3.733333e+00 1.428571e+00
 endloop
endfacet
facet normal 0.000000e+00 -1.000000e+00 0.000000e+00
 outer loop
  vertex -5.000000e+00 4.000000e-01 0.000000e+00
  vertex -1.666667e+00 4.000000e-01 1.428571e+00
  vertex -5.000000e+00 4.000000e-01 1.428571e+00
 endloop
endfacet
facet normal 0.000000e+00 0.000000e+00 -1.000000e+00
 outer loop
  vertex -5.000000e+00 3.733333e+00 0.000000e+00
  vertex -5.000000e+00 7.066667e+00 0.000000e+00
  vertex -1.666667e+00 7.066667e+00 0.000000e+00
 endloop
endfacet
facet normal -1.000000e+00 0.000000e+00 0.000000e+00
 outer loop
  vertex -5.000000e+00 7.066667e+00 0.000000e+00
  vertex -5.000000e+00 3.733333e+00 0.000000e+00
  vertex -5.000000e+00 7.066667e+00 1.428571e+00
 endloop
endfacet
facet normal 0.000000e+00 0.000000e+00 -1.000000e+00
 outer loop
  vertex -5.000000e+00 3.733333e+00 0.000000e+00
  vertex -1.666667e+00 7.066667e+00 0.000000e+00
  vertex -1.666667e+00 3.733333e+00 0.000000e+00
 endloop
endfacet
facet normal -1.000000e+00 0.000000e+00 0.000000e+00
 outer loop
  vertex -5.000000e+00 3.733333e+00 0.000000e+00
  vertex -5.000000e+00 3.733333e+00 1.428571e+00
  vertex -5.000000e+00 7.066667e+00 1.428571e+00
 endloop
endfacet
facet normal 0.000000e+00 0.000000e+00 -1.000000e+00
 outer loop
  vertex -5.000000e+00 7.066667e+00 0.000000e+00
  vertex -5.000000e+00 1.040000e+01 0.000000e+00
  vertex -1.666667e+00 1.040000e+01 0.000000e+00
 endloop
endfacet
facet normal -1.000000e+00 0.000000e+00 0.000000e+00
 outer loop
  vertex -5.000000e+00 1.040000e+01 0.000000e+00
  vertex -5.000000e+00 7.066667e+00 0.000000e+00
  vertex -5.000000e+00 1.040000e+01 1.428571e+00
 endloop
endfacet
facet normal 0.000000e+00 0.000000e+00 -1.000000e+00
 outer loop
  vertex -5.000000e+00 7.066667e+00 0.000000e+00
  vertex -1.666667e+00 1.040000e+01 0.000000e+00
  vertex -1.666667e+00 7.066667e+00 0.000000e+00
 endloop
endfacet
facet normal -1.000000e+00 0.000000e+00 0.000000e+00
 outer loop
  vertex -5.000000e+00 7.066667e+00 0.000000e+00
  vertex -5.000000e+00 7.066667e+00 1.428571e+00
  vertex -5.000000e+00 1.040000e+01 1.428571e+00
 endloop
endfacet
facet normal 0.000000e+00 1.000000e+00 0.000000e+00
 outer loop
  vertex -5.000000e+00 1.040000e+01 0.000000e+00
  vertex -1.666667e+00 1.040000e+01 1.428571e+00
  vertex -1.666667e+00 1.040000e+01 0.000000e+00
 endloop
endfacet
facet normal 0.000000e+00 1.000000e+00 0.000000e+00
 outer loop
  vertex -5.000000e+00 1.040000e+01 0.000000e+00
  vertex -5.000000e+00 1.040000e+01 1.428571e+00
  vertex -1.666667e+00 1.040000e+01 1.428571e+00
 endloop
endfacet
facet normal 0.000000e+00 0.000000e+00 -1.000000e+00
 outer loop
  vertex -1.666667e+00 4.000000e-01 0.000000e+00
  vertex -1.666667e+00 3.733333e+00 0.000000e+00
  vertex 1.666667e+00 3.733333e+00 0.000000e+00
 endloop
endfacet
facet normal 0.000000e+00 0.000000e+00 -1.000000e+00
 outer loop
  vertex -1.666667e+00 4.000000e-01 0.000000e+00
  vertex 1.666667e+00 3.733333e+00 0.000000e+00
  vertex 1.666667e+00 4.000000e-01 0.000000e+00
 endloop
endfacet
facet normal 0.000000e+00 -1.000000e+00 0.000000e+00
 outer loop
  vertex -1.666667e+00 4.000000e-01 0.000000e+00
  vertex 1.666667e+00 4.000000e-01 0.000000e+00
  vertex 1.666667e+00 4.000000e-01 1.428571e+00
 endloop
endfacet
facet normal 0.000000e+00 -1.000000e+00 0.000000e+00
 outer loop
  vertex -1.666667e+00 4.000000e-01 0.000000e+00
  vertex 1.666667e+00 4.000000e-01 1.428571e+00
  vertex -1.666667e+00 4.000000e-01 1.428571e+00
 endloop
endfacet
facet normal 0.000000e+00 0.000000e+00 -1.000000e+00
 outer loop
  vertex -1.666667e+00 3.733333e+00 0.000000e+00
  vertex -1.666667e+00 7.066667e+00 0.000000e+00
  vertex 1.666667e+00 7.066667e+00 0.000000e+00
 endloop
endfacet
facet normal 0.000000e+00 0.000000e+00 -1.000000e+00
 outer loop
  vertex -1.666667e+00 3.733333e+00 0.000000e+00
  vertex 1.666667e+00 7.066667e+00 0.000000e+00
  vertex 1.666667e+00 3.733333e+00 0.000000e+00
 endloop
endfacet
facet normal 0.000000e+00 0.000000e+00 -1.000000e+00
 outer loop
  vertex -1.666667e+00 7.066667e+00 0.000000e+00
  vertex -1.666667e+00 1.040000e+01 0.000000e+00
  vertex 1.666667e+00 1.040000e+01 0.000000e+00
 endloop
endfacet
facet normal 0.000000e+00 0.000000e+00 -1.000000e+00
 outer loop
  vertex -1.666667e+00 7.066667e+00 0.000000e+00
  vertex 1.666667e+00 1.040000e+01 0.000000e+00
  vertex 1.666667e+00 7.066667e+00 0.000000e+00
 endloop
endfacet
facet normal 0.000000e+00 1.000000e+00 0.000000e+00
 outer loop
  vertex -1.666667e+00 1.040000e+01 0.000000e+00
  vertex 1.666667e+00 1.040000e+01 1.428571e+00
  vertex 1.666667e+00 1.040000e+01 0.000000e+00
 endloop
endfacet
facet normal 0.000000e+00 1.000000e+00 0.000000e+00
 outer loop
  vertex -1.666667e+00 1.040000e+01 0.000000e+00
  vertex -1.666667e+00 1.040000e+01 1.428571e+00
  vertex 1.666667e+00 1.040000e+01 1.428571e+00
 endloop
endfacet
facet normal 0.000000e+00 0.000000e+00 -1.000000e+00
 outer loop
  vertex 1.666667e+00 4.000000e-01 0.000000e+00
  vertex 1.666667e+00 3.733333e+00 0.000000e+00
  vertex 5.000000e+00 3.733333e+00 0.000000e+00
 endloop
endfacet
facet normal 0.000000e+00 0.000000e+00 -1.000000e+00
 outer loop
  vertex 1.666667e+00 4.000000e-01 0.000000e+00
  vertex 5.000000e+00 3.733333e+00 0.000000e+00
  vertex 5.000000e+00 4.000000e-01 0.000000e+00
 endloop
endfacet
facet normal 0.000000e+00 -1.000000e+00 0.000000e+00
 outer loop
  vertex 1.666667e+00 4.000000e-01 0.000000e+00
  vertex 5.000000e+00 4.000000e-01 0.000000e+00
  vertex 5.000000e+00 4.000000e-01 1.428571e+00
 endloop
endfacet
facet normal 0.000000e+00 -1.000000e+00 0.000000e+00
 outer loop
  vertex 1.666667e+00 4.000000e-01 0.000000e+00
  vertex 5.000000e+00 4.000000e-01 1.428571e+00
  vertex 1.666667e+00 4.000000e-01 1.428571e+00
 endloop
endfacet
facet normal 0.000000e+00 0.000000e+00 -1.000000e+00
 outer loop
  vertex 1.666667e+00 3.733333e+00 0.000000e+00
  vertex 1.666667e+00 7.066667e+00 0.000000e+00
  vertex 5.000000e+00 7.066667e+00 0.000000e+00
 endloop
endfacet
facet normal 0.000000e+00 0.000000e+00 -1.000000e+00
 outer loop
  vertex 1.666667e+00 3.733333e+00 0.000000e+00
  vertex 5.000000e+00 7.066667e+00 0.000000e+00
  vertex 5.000000e+00 3.733333e+00 0.000000e+00
 endloop
endfacet
facet normal 0.000000e+00 0.000000e+00 -1.000000e+00
 outer loop
  vertex 1.666667e+00 7.066667e+00 0.000000e+00
  vertex 1.666667e+00 1.040000e+01 0.000000e+00
  vertex 5.000000e+00 1.040000e+01 0.000000e+00
 endloop
endfacet
facet normal 0.000000e+00 0.000000e+00 -1.000000e+00
 outer loop
  vertex 1.666667e+00 7.066667e+00 0.000000e+00
  vertex 5.000000e+00 1.040000e+01 0.000000e+00
  vertex 5.000000e+00 7.066667e+00 0.000000e+00
 endloop
endfacet
facet normal 0.000000e+00 1.000000e+00 0.000000e+00
 outer loop
  vertex 1.666667e+00 1.040000e+01 0.000000e+00
  vertex 5.000000e+00 1.040000e+01 1.428571e+00
  vertex 5.000000e+00 1.040000e+01 0.000000e+00
 endloop
endfacet
facet normal 0.000000e+00 1.000000e+00 0.000000e+00
 outer loop
  vertex 1.666667e+00 1.040000e+01 0.000000e+00
  vertex 1.666667e+00 1.040000e+01 1.428571e+00
  vertex 5.000000e+00 1.040000e+01 1.428571e+00
 endloop
endfacet
facet normal 1.000000e+00 0.000000e+00 -0.000000e+00
 outer loop
  vertex 5.000000e+00 3.733333e+00 0.000000e+00
  vertex 5.000000e+00 3.733333e+00 1.428571e+00
  vertex 5.000000e+00 4.000000e-01 0.000000e+00
 endloop
endfacet
facet normal 1.000000e+00 0.000000e+00 0.000000e+00
 outer loop
  vertex 5.000000e+00 4.000000e-01 0.000000e+00
  vertex 5.000000e+00 3.733333e+00 1.428571e+00
  vertex 5.000000e+00 4.000000e-01 1.428571e+00
 endloop
endfacet
facet normal 1.000000e+00 0.000000e+00 -0.000000e+00
 outer loop
  vertex 5.000000e+00 7.066667e+00 0.000000e+00
  vertex 5.000000e+00 7.066667e+00 1.428571e+00
  vertex 5.000000e+00 3.733333e+00 0.000000e+00
 endloop
endfacet
facet normal 1.000000e+00 0.000000e+00 0.000000e+00
 outer loop
  vertex 5.000000e+00 3.733333e+00 0.000000e+00
  vertex 5.000000e+00 7.066667e+00 1.428571e+00
  vertex 5.000000e+00 3.733333e+00 1.428571e+00
 endloop
endfacet
facet normal 1.000000e+00 0.000000e+00 -0.000000e+00
 outer loop
  vertex 5.000000e+00 1.040000e+01 0.000000e+00
  vertex 5.000000e+00 1.040000e+01 1.428571e+00
  vertex 5.000000e+00 7.066667e+00 0.000000e+00
 endloop
endfacet
facet normal 1.000000e+00 0.000000e+00 0.000000e+00
 outer loop
  vertex 5.000000e+00 7.066667e+00 0.000000e+00
  vertex 5.000000e+00 1.040000e+01 1.428571e+00
  vertex 5.000000e+00 7.066667e+00 1.428571e+00
 endloop
endfacet
facet normal -1.000000e+00 0.000000e+00 0.000000e+00
 outer loop
  vertex -5.000000e+00 3.733333e+00 1.428571e+00
  vertex -5.000000e+00 4.000000e-01 1.428571e+00
  vertex -5.000000e+00 3.733333e+00 2.857143e+00
 endloop
endfacet
facet normal 0.000000e+00 -1.000000e+00 0.000000e+00
 outer loop
  vertex -5.000000e+00 4.000000e-01 1.428571e+00
  vertex -1.666667e+00 4.000000e-01 1.428571e+00
  vertex -1.666667e+00 4.000000e-01 2.857143e+00
 endloop
endfacet
facet normal -1.000000e+00 0.000000e+00 0.000000e+00
 outer loop
  vertex -5.000000e+00 4.000000e-01 1.428571e+00
  vertex -5.000000e+00 4.000000e-01 2.857143e+00
  vertex -5.000000e+00 3.733333e+00 2.857143e+00
 endloop
endfacet
facet normal 0.000000e+00 -1.000000e+00 0.000000e+00
 outer loop
  vertex -5.000000e+00 4.000000e-01 1.428571e+00
  vertex -1.666667e+00 4.000000e-01 2.857143e+00
  vertex -5.000000e+00 4.000000e-01 2.857143e+00
 endloop
endfacet
facet normal -1.000000e+00 0.000000e+00 0.000000e+00
 outer loop
  vertex -5.000000e+00 7.066667e+00 1.428571e+00
  vertex -5.000000e+00 3.733333e+00 1.428571e+00
  vertex -5.000000e+00 7.066667e+00 2.857143e+00
 endloop
endfacet
facet normal -1.000000e+00 0.000000e+00 0.000000e+00
 outer loop
  vertex -5.000000e+00 3.733333e+00 1.428571e+00
  vertex -5.000000e+00 3.733333e+00 2.857143e+00
  vertex -5.000000e+00 7.066667e+00 2.857143e+00
 endloop
endfacet
facet normal -1.000000e+00 0.000000e+00 0.000000e+00
 outer loop
  vertex -5.000000e+00 1.040000e+01 1.428571e+00
  vertex -5.000000e+00 7.066667e+00 1.428571e+00
  vertex -5.000000e+00 1.040000e+01 2.857143e+00
 endloop
endfacet
facet normal -1.000000e+00 0.000000e+00 0.000000e+00
 outer loop
  vertex -5.000000e+00 7.066667e+00 1.428571e+00
  vertex -5.000000e+00 7.066667e+00 2.857143e+00
  vertex -5.000000e+00 1.040000e+01 2.857143e+00
 endloop
endfacet
facet normal 0.000000e+00 1.000000e+00 0.000000e+00
 outer loop
  vertex -5.000000e+00 1.040000e+01 1.428571e+00
  vertex -1.666667e+00 1.040000e+01 2.857143e+00
  vertex -1.666667e+00 1.040000e+01 1.428571e+00
 endloop
endfacet
facet normal 0.000000e+00 1.000000e+00 0.000000e+00
 outer loop
  vertex -5.000000e+00 1.040000e+01 1.428571e+00
  vertex -5.000000e+00 1.040000e+01 2.857143e+00
  vertex -1.666667e+00 1.040000e+01 2.857143e+00
 endloop
endfacet
facet normal 0.000000e+00 -1.000000e+00 0.000000e+00
 outer loop
  vertex -1.666667e+00 4.000000e-01 1.428571e+00
  vertex 1.666667e+00 4.000000e-01 1.428571e+00
  vertex 1.666667e+00 4.000000e-01 2.857143e+00
 endloop
endfacet
facet normal 0.000000e+00 -1.000000e+00 0.000000e+00
 outer loop
  vertex -1.666667e+00 4.000000e-01 1.428571e+00
  vertex 1.666667e+00 4.000000e-01 2.857143e+00
  vertex -1.666667e+00 4.000000e-01 2.857143e+00
 endloop
endfacet
facet normal 0.000000e+00 1.000000e+00 0.000000e+00
 outer loop
  vertex -1.666667e+00 1.040000e+01 1.428571e+00
  vertex 1.666667e+00 1.040000e+01 2.857143e+00
  vertex 1.666667e+00 1.040000e+01 1.428571e+00
 endloop
endfacet
facet normal 0.000000e+00 1.000000e+00 0.000000e+00
 outer loop
  vertex -1.666667e+00 1.040000e+01 1.428571e+00
  vertex -1.666667e+00 1.040000e+01 2.857143e+00
  vertex 1.666667e+00 1.040000e+01 2.857143e+00
 endloop
endfacet
facet normal 0.000000e+00 -1.000000e+00 0.000000e+00
 outer loop
  vertex 1.666667e+00 4.000000e-01 1.428571e+00
  vertex 5.000000e+00 4.000000e-01 1.428571e+00
  vertex 5.000000e+00 4.000000e-01 2.857143e+00
 endloop
endfacet
facet normal 0.000000e+00 -1.000000e+00 0.000000e+00
 outer loop
  vertex 1.666667e+00 4.000000e-01 1.428571e+00
  vertex 5.000000e+00 4.000000e-01 2.857143e+00
  vertex 1.666667e+00 4.000000e-01 2.857143e+00
 endloop
endfacet
facet normal 0.000000e+00 1.000000e+00 0.000000e+00
 outer loop
  vertex 1.666667e+00 1.040000e+01 1.428571e+00
  vertex 5.000000e+00 1.040000e+01 2.857143e+00
  vertex 5.000000e+00 1.040000e+01 1.428571e+00
 endloop
endfacet
facet normal 0.000000e+00 1.000000e+00 0.000000e+00
 outer loop
  vertex 1.666667e+00 1.040000e+01 1.428571e+00
  vertex 1.666667e+00 1.040000e+01 2.857143e+00
  vertex 5.000000e+00 1.040000e+01 2.857143e+00
 endloop
endfacet
facet normal 1.000000e+00 0.000000e+00 -0.000000e+00
 outer loop
  vertex 5.000000e+00 3.733333e+00 1.428571e+00
  vertex 5.000000e+00 3.733333e+00 2.857143e+00
  vertex 5.000000e+00 4.000000e-01 1.428571e+00
 endloop
endfacet
facet normal 1.000000e+00 0.000000e+00 0.000000e+00
 outer loop
  vertex 5.000000e+00 4.000000e-01 1.428571e+00
  vertex 5.000000e+00 3.733333e+00 2.857143e+00
  vertex 5.000000e+00 4.000000e-01 2.857143e+00
 endloop
endfacet
facet normal 1.000000e+00 0.000000e+00 -0.000000e+00
 outer loop
  vertex 5.000000e+00 7.066667e+00 1.428571e+00
  vertex 5.000000e+00 7.066667e+00 2.857143e+00
  vertex 5.000000e+00 3.733333e+00 1.428571e+00
 endloop
endfacet
facet normal 1.000000e+00 0.000000e+00 0.000000e+00
 outer loop
  vertex 5.000000e+00 3.733333e+00 1.428571e+00
  vertex 5.000000e+00 7.066667e+00 2.857143e+00
  vertex 5.000000e+00 3.733333e+00 2.857143e+00
 endloop
endfacet
facet normal 1.000000e+00 0.000000e+00 -0.000000e+00
 outer loop
  vertex 5.000000e+00 1.040000e+01 1.428571e+00
  vertex 5.000000e+00 1.040000e+01 2.857143e+00
  vertex 5.000000e+00 7.066667e+00 1.428571e+00
 endloop
endfacet
facet normal 1.000000e+00 0.000000e+00 0.000000e+00
 outer loop
  vertex 5.000000e+00 7.066667e+00 1.428571e+00
  vertex 5.000000e+00 1.040000e+01 2.857143e+00
  vertex 5.000000e+00 7.066667e+00 2.857143e+00
 endloop
endfacet
facet normal -1.000000e+00 0.000000e+00 0.000000e+00
 outer loop
  vertex -5.000000e+00 3.733333e+00 2.857143e+00
  vertex -5.000000e+00 4.000000e-01 2.857143e+00
  vertex -5.000000e+00 3.733333e+00 4.285714e+00
 endloop
endfacet
facet normal 0.000000e+00 -1.000000e+00 0.000000e+00
 outer loop
  vertex -5.000000e+00 4.000000e-01 2.857143e+00
  vertex -1.666667e+00 4.000000e-01 2.857143e+00
  vertex -1.666667e+00 4.000000e-01 4.285714e+00
 endloop
endfacet
facet normal -1.000000e+00 0.000000e+00 0.000000e+00
 outer loop
  vertex -5.000000e+00 4.000000e-01 2.857143e+00
  vertex -5.000000e+00 4.000000e-01 4.285714e+00
  vertex -5.000000e+00 3.733333e+00 4.285714e+00
 endloop
endfacet
facet normal 0.000000e+00 -1.000000e+00 0.000000e+00
 outer loop
  vertex -5.000000e+00 4.000000e-01 2.857143e+00
  vertex -1.666667e+00 4.000000e-01 4.285714e+00
  vertex -5.000000e+00 4.000000e-01 4.285714e+00
 endloop
endfacet
facet normal -1.000000e+00 0.000000e+00 0.000000e+00
 outer loop
  vertex -5.000000e+00 7.066667e+00 2.857143e+00
  vertex -5.000000e+00 3.733333e+00 2.857143e+00
  vertex -5.000000e+00 7.066667e+00 4.285714e+00
 endloop
endfacet
facet normal -1.000000e+00 0.000000e+00 0.000000e+00
 outer loop
  vertex -5.000000e+00 3.733333e+00 2.857143e+00
  vertex -5.000000e+00 3.733333e+00 4.285714e+00
  vertex -5.000000e+00 7.066667e+00 4.285714e+00
 endloop
endfacet
facet normal -1.000000e+00 0.000000e+00 0.000000e+00
 outer loop
  vertex -5.000000e+00 1.040000e+01 2.857143e+00
  vertex -5.000000e+00 7.066667e+00 2.857143e+00
  vertex -5.000000e+00 1.040000e+01 4.285714e+00
 endloop
endfacet
facet normal -1.000000e+00 0.000000e+00 0.000000e+00
 outer loop
  vertex -5.000000e+00 7.066667e+00 2.857143e+00
  vertex -5.000000e+00 7.066667e+00 4.285714e+00
  vertex -5.000000e+00 1.040000e+01 4.285714e+00
 endloop
endfacet
facet normal 0.000000e+00 1.000000e+00 0.000000e+00
 outer loop
  vertex -5.000000e+00 1.040000e+01 2.857143e+00
  vertex -1.666667e+00 1.040000e+01 4.285714e+00
  vertex -1.666667e+00 1.040000e+01 2.857143e+00
 endloop
endfacet
facet normal 0.000000e+00 1.000000e+00 0.000000e+00
 outer loop
  vertex -5.000000e+00 1.040000e+01 2.857143e+00
  vertex -5.000000e+00 1.040000e+01 4.285714e+00
  vertex -1.666667e+00 1.040000e+01 4.285714e+00
 endloop
endfacet
facet normal 0.000000e+00 -1.000000e+00 0.000000e+00
 outer loop
  vertex -1.666667e+00 4.000000e-01 2.857143e+00
  vertex 1.666667e+00 4.000000e-01 2.857143e+00
  vertex 1.666667e+00 4.000000e-01 4.285714e+00
 endloop
endfacet
facet normal 0.000000e+00 -1.000000e+00 0.000000e+00
 outer loop
  vertex -1.666667e+00 4.000000e-01 2.857143e+00
  vertex 1.666667e+00 4.000000e-01 4.285714e+00
  vertex -1.666667e+00 4.000000e-01 4.285714e+00
 endloop
endfacet
facet normal 0.000000e+00 1.000000e+00 0.000000e+00
 outer loop
  vertex -1.666667e+00 1.040000e+01 2.857143e+00
  vertex 1.666667e+00 1.040000e+01 4.285714e+00
  vertex 1.666667e+00 1.040000e+01 2.857143e+00
 endloop
endfacet
facet normal 0.000000e+00 1.000000e+00 0.000000e+00
 outer loop
  vertex -1.666667e+00 1.040000e+01 2.857143e+00
  vertex -1.666667e+00 1.040000e+01 4.285714e+00
  vertex 1.666667e+00 1.040000e+01 4.285714e+00
 endloop
endfacet
facet normal 0.000000e+00 -1.000000e+00 0.000000e+00
 outer loop
  vertex 1.666667e+00 4.000000e-01 2.857143e+00
  vertex 5.000000e+00 4.000000e-01 2.857143e+00
  vertex 5.000000e+00 4.000000e-01 4.285714e+00
 endloop
endfacet
facet normal 0.000000e+00 -1.000000e+00 0.000000e+00
 outer loop
  vertex 1.666667e+00 4.000000e-01 2.857143e+00
  vertex 5.000000e+00 4.000000e-01 4.285714e+00
  vertex 1.666667e+00 4.000000e-01 4.285714e+00
 endloop
endfacet
facet normal 0.000000e+00 1.000000e+00 0.000000e+00
 outer loop
  vertex 1.666667e+00 1.040000e+01 2.857143e+00
  vertex 5.000000e+00 1.040000e+01 4.285714e+00
  vertex 5.000000e+00 1.040000e+01 2.857143e+00
 endloop
endfacet
facet normal 0.000000e+00 1.000000e+00 0.000000e+00
 outer loop
  vertex 1.666667e+00 1.040000e+01 2.857143e+00
  vertex 1.666667e+00 1.040000e+01 4.285714e+00
  vertex 5.000000e+00 1.040000e+01 4.285714e+00
 endloop
endfacet
facet normal 1.000000e+00 0.000000e+00 -0.000000e+00
 outer loop
  vertex 5.000000e+00 3.733333e+00 2.857143e+00
  vertex 5.000000e+00 3.733333e+00 4.285714e+00
  vertex 5.000000e+00 4.000000e-01 2.857143e+00
 endloop
endfacet
facet normal 1.000000e+00 0.000000e+00 0.000000e+00
 outer loop
  vertex 5.000000e+00 4.000000e-01 2.857143e+00
  vertex 5.000000e+00 3.733333e+00 4.285714e+00
  vertex 5.000000e+00 4.000000e-01 4.285714e+00
 endloop
endfacet
facet normal 1.000000e+00 0.000000e+00 -0.000000e+00
 outer loop
  vertex 5.000000e+00 7.066667e+00 2.857143e+00
  vertex 5.000000e+00 7.066667e+00 4.285714e+00
  vertex 5.000000e+00 3.733333e+00 2.857143e+00
 endloop
endfacet
facet normal 1.000000e+00 0.000000e+00 0.000000e+00
 outer loop
  vertex 5.000000e+00 3.733333e+00 2.857143e+00
  vertex 5.000000e+00 7.066667e+00 4.285714e+00
  vertex 5.000000e+00 3.733333e+00 4.285714e+00
 endloop
endfacet
facet normal 1.000000e+00 0.000000e+00 -0.000000e+00
 outer loop
  vertex 5.000000e+00 1.040000e+01 2.857143e+00
  vertex 5.000000e+00 1.040000e+01 4.285714e+00
  vertex 5.000000e+00 7.066667e+00 2.857143e+00
 endloop
endfacet
facet normal 1.000000e+00 0.000000e+00 0.000000e+00
 outer loop
  vertex 5.000000e+00 7.066667e+00 2.857143e+00
  vertex 5.000000e+00 1.040000e+01 4.285714e+00
  vertex 5.000000e+00 7.066667e+00 4.285714e+00
 endloop
endfacet
facet normal -1.000000e+00 0.000000e+00 0.000000e+00
 outer loop
  vertex -5.000000e+00 3.733333e+00 4.285714e+00
  vertex -5.000000e+00 4.000000e-01 4.285714e+00
  vertex -5.000000e+00 3.733333e+00 5.714286e+00
 endloop
endfacet
facet normal 0.000000e+00 -1.000000e+00 0.000000e+00
 outer loop
  vertex -5.000000e+00 4.000000e-01 4.285714e+00
  vertex -1.666667e+00 4.000000e-01 4.285714e+00
  vertex -1.666667e+00 4.000000e-01 5.714286e+00
 endloop
endfacet
facet normal -1.000000e+00 0.000000e+00 0.000000e+00
 outer loop
  vertex -5.000000e+00 4.000000e-01 4.285714e+00
  vertex -5.000000e+00 4.000000e-01 5.714286e+00
  vertex -5.000000e+00 3.733333e+00 5.714286e+00
 endloop
endfacet
facet normal 0.000000e+00 -1.000000e+00 0.000000e+00
 outer loop
  vertex -5.000000e+00 4.000000e-01 4.285714e+00
  vertex -1.666667e+00 4.000000e-01 5.714286e+00
  vertex -5.000000e+00 4.000000e-01 5.714286e+00
 endloop
endfacet
facet normal -1.000000e+00 0.000000e+00 0.000000e+00
 outer loop
  vertex -5.000000e+00 7.066667e+00 4.285714e+00
  vertex -5.000000e+00 3.733333e+00 4.285714e+00
  vertex -5.000000e+00 7.066667e+00 5.714286e+00
 endloop
endfacet
facet normal -1.000000e+00 0.000000e+00 0.000000e+00
 outer loop
  vertex -5.000000e+00 3.733333e+00 4.285714e+00
  vertex -5.000000e+00 3.733333e+00 5.714286e+00
  vertex -5.000000e+00 7.066667e+00 5.714286e+00
 endloop
endfacet
facet normal -1.000000e+00 0.000000e+00 0.000000e+00
 outer loop
  vertex -5.000000e+00 1.040000e+01 4.285714e+00
  vertex -5.000000e+00 7.066667e+00 4.285714e+00
  vertex -5.000000e+00 1.040000e+01 5.714286e+00
 endloop
endfacet
facet normal -1.000000e+00 0.000000e+00 0.000000e+00
 outer loop
  vertex -5.000000e+00 7.066667e+00 4.285714e+00
  vertex -5.000000e+00 7.066667e+00 5.714286e+00
  vertex -5.000000e+00 1.040000e+01 5.714286e+00
 endloop
endfacet
facet normal 0.000000e+00 1.000000e+00 0.000000e+00
 outer loop
  vertex -5.000000e+00 1.040000e+01 4.285714e+00
  vertex -1.666667e+00 1.040000e+01 5.714286e+00
  vertex -1.666667e+00 1.040000e+01 4.285714e+00
 endloop
endfacet
facet normal 0.000000e+00 1.000000e+00 0.000000e+00
 outer loop
  vertex -5.000000e+00 1.040000e+01 4.285714e+00
  vertex -5.000000e+00 1.040000e+01 5.714286e+00
  vertex -1.666667e+00 1.040000e+01 5.714286e+00
 endloop
endfacet
facet normal 0.000000e+00 -1.000000e+00 0.000000e+00
 outer loop
  vertex -1.666667e+00 4.000000e-01 4.285714e+00
  vertex 1.666667e+00 4.000000e-01 4.285714e+00
  vertex 1.666667e+00 4.000000e-01 5.714286e+00
 endloop
endfacet
facet normal 0.000000e+00 -1.000000e+00 0.000000e+00
 outer loop
  vertex -1.666667e+00 4.000000e-01 4.285714e+00
  vertex 1.666667e+00 4.000000e-01 5.714286e+00
  vertex -1.666667e+00 4.000000e-01 5.714286e+00
 endloop
endfacet
facet normal 0.000000e+00 1.000000e+00 0.000000e+00
 outer loop
  vertex -1.666667e+00 1.040000e+01 4.285714e+00
  vertex 1.666667e+00 1.040000e+01 5.714286e+00
  vertex 1.666667e+00 1.040000e+01 4.285714e+00
 endloop
endfacet
facet normal 0.000000e+00 1.000000e+00 0.000000e+00
 outer loop
  vertex -1.666667e+00 1.040000e+01 4.285714e+00
  vertex -1.666667e+00 1.040000e+01 5.714286e+00
  vertex 1.666667e+00 1.040000e+01 5.714286e+00
 endloop
endfacet
facet normal 0.000000e+00 -1.000000e+00 0.000000e+00
 outer loop
  vertex 1.666667e+00 4.000000e-01 4.285714e+00
  vertex 5.000000e+00 4.000000e-01 4.285714e+00
  vertex 5.000000e+00 4.000000e-01 5.714286e+00
 endloop
endfacet
facet normal 0.000000e+00 -1.000000e+00 0.000000e+00
 outer loop
  vertex 1.666667e+00 4.000000e-01 4.285714e+00
  vertex 5.000000e+00 4.000000e-01 5.714286e+00
  vertex 1.666667e+00 4.000000e-01 5.714286e+00
 endloop
endfacet
facet normal 0.000000e+00 1.000000e+00 0.000000e+00
 outer loop
  vertex 1.666667e+00 1.040000e+01 4.285714e+00
  vertex 5.000000e+00 1.040000e+01 5.714286e+00
  vertex 5.000000e+00 1.040000e+01 4.285714e+00
 endloop
endfacet
facet normal 0.000000e+00 1.000000e+00 0.000000e+00
 outer loop
  vertex 1.666667e+00 1.040000e+01 4.285714e+00
  vertex 1.666667e+00 1.040000e+01 5.714286e+00
  vertex 5.000000e+00 1.040000e+01 5.714286e+00
 endloop
endfacet
facet normal 1.000000e+00 0.000000e+00 -0.000000e+00
 outer loop
  vertex 5.000000e+00 3.733333e+00 4.285714e+00
  vertex 5.000000e+00 3.733333e+00 5.714286e+00
  vertex 5.000000e+00 4.000000e-01 4.285714e+00
 endloop
endfacet
facet normal 1.000000e+00 0.000000e+00 0.000000e+00
 outer loop
  vertex 5.000000e+00 4.000000e-01 4.285714e+00
  vertex 5.000000e+00 3.733333e+00 5.714286e+00
  vertex 5.000000e+00 4.000000e-01 5.714286e+00
 endloop
endfacet
facet normal 1.000000e+00 0.000000e+00 -0.000000e+00
 outer loop
  vertex 5.000000e+00 7.066667e+00 4.285714e+00
  vertex 5.000000e+00 7.066667e+00 5.714286e+00
  vertex 5.000000e+00 3.733333e+00 4.285714e+00
 endloop
endfacet
facet normal 1.000000e+00 0.000000e+00 0.000000e+00
 outer loop
  vertex 5.000000e+00 3.733333e+00 4.285714e+00
  vertex 5.000000e+00 7.066667e+00 5.714286e+00
  vertex 5.000000e+00 3.733333e+00 5.714286e+00
 endloop
endfacet
facet normal 1.000000e+00 0.000000e+00 -0.000000e+00
 outer loop
  vertex 5.000000e+00 1.040000e+01 4.285714e+00
  vertex 5.000000e+00 1.040000e+01 5.714286e+00
  vertex 5.000000e+00 7.066667e+00 4.285714e+00
 endloop
endfacet
facet normal 1.000000e+00 0.000000e+00 0.000000e+00
 outer loop
  vertex 5.000000e+00 7.066667e+00 4.285714e+00
  vertex 5.000000e+00 1.040000e+01 5.714286e+00
  vertex 5.000000e+00 7.066667e+00 5.714286e+00
 endloop
endfacet
facet normal -1.000000e+00 0.000000e+00 0.000000e+00
 outer loop
  vertex -5.000000e+00 3.733333e+00 5.714286e+00
  vertex -5.000000e+00 4.000000e-01 5.714286e+00
  vertex -5.000000e+00 3.733333e+00 7.142857e+00
 endloop
endfacet
facet normal 0.000000e+00 -1.000000e+00 0.000000e+00
 outer loop
  vertex -5.000000e+00 4.000000e-01 5.714286e+00
  vertex -1.666667e+00 4.000000e-01 5.714286e+00
  vertex -1.666667e+00 4.000000e-01 7.142857e+00
 endloop
endfacet
facet normal -1.000000e+00 0.000000e+00 0.000000e+00
 outer loop
  vertex -5.000000e+00 4.000000e-01 5.714286e+00
  vertex -5.000000e+00 4.000000e-01 7.142857e+00
  vertex -5.000000e+00 3.733333e+00 7.142857e+00
 endloop
endfacet
facet normal 0.000000e+00 -1.000000e+00 0.000000e+00
 outer loop
  vertex -5.000000e+00 4.000000e-01 5.714286e+00
  vertex -1.666667e+00 4.000000e-01 7.142857e+00
  vertex -5.000000e+00 4.000000e-01 7.142857e+00
 endloop
endfacet
facet normal -1.000000e+00 0.000000e+00 0.000000e+00
 outer loop
  vertex -5.000000e+00 7.066667e+00 5.714286e+00
  vertex -5.000000e+00 3.733333e+00 5.714286e+00
  vertex -5.000000e+00 7.066667e+00 7.142857e+00
 endloop
endfacet
facet normal -1.000000e+00 0.000000e+00 0.000000e+00
 outer loop
  vertex -5.000000e+00 3.733333e+00 5.714286e+00
  vertex -5.000000e+00 3.733333e+00 7.142857e+00
  vertex -5.000000e+00 7.066667e+00 7.142857e+00
 endloop
endfacet
facet normal -1.000000e+00 0.000000e+00 0.000000e+00
 outer loop
  vertex -5.000000e+00 1.040000e+01 5.714286e+00
  vertex -5.000000e+00 7.066667e+00 5.714286e+00
  vertex -5.000000e+00 1.040000e+01 7.142857e+00
 endloop
endfacet
facet normal -1.000000e+00 0.000000e+00 0.000000e+00
 outer loop
  vertex -5.000000e+00 7.066667e+00 5.714286e+00
  vertex -5.000000e+00 7.066667e+00 7.142857e+00
  vertex -5.000000e+00 1.040000e+01 7.142857e+00
 endloop
endfacet
facet normal 0.000000e+00 1.000000e+00 0.000000e+00
 outer loop
  vertex -5.000000e+00 1.040000e+01 5.714286e+00
  vertex -1.666667e+00 1.040000e+01 7.142857e+00
  vertex -1.666667e+00 1.040000e+01 5.714286e+00
 endloop
endfacet
facet normal 0.000000e+00 1.000000e+00 0.000000e+00
 outer loop
  vertex -5.000000e+00 1.040000e+01 5.714286e+00
  vertex -5.000000e+00 1.040000e+01 7.142857e+00
  vertex -1.666667e+00 1.040000e+01 7.142857e+00
 endloop
endfacet
facet normal 0.000000e+00 -1.000000e+00 0.000000e+00
 outer loop
  vertex -1.666667e+00 4.000000e-01 5.714286e+00
  vertex 1.666667e+00 4.000000e-01 5.714286e+00
  vertex 1.666667e+00 4.000000e-01 7.142857e+00
 endloop
endfacet
facet normal 0.000000e+00 -1.000000e+00 0.000000e+00
 outer loop
  vertex -1.666667e+00 4.000000e-01 5.714286e+00
  vertex 1.666667e+00 4.000000e-01 7.142857e+00
  vertex -1.666667e+00 4.000000e-01 7.142857e+00
 endloop
endfacet
facet normal 0.000000e+00 1.000000e+00 0.000000e+00
 outer loop
  vertex -1.666667e+00 1.040000e+01 5.714286e+00
  vertex 1.666667e+00 1.040000e+01 7.142857e+00
  vertex 1.666667e+00 1.040000e+01 5.714286e+00
 endloop
endfacet
facet normal 0.000000e+00 1.000000e+00 0.000000e+00
 outer loop
  vertex -1.666667e+00 1.040000e+01 5.714286e+00
  vertex -1.666667e+00 1.040000e+01 7.142857e+00
  vertex 1.666667e+00 1.040000e+01 7.142857e+00
 endloop
endfacet
facet normal 0.000000e+00 -1.000000e+00 0.000000e+00
 outer loop
  vertex 1.666667e+00 4.000000e-01 5.714286e+00
  vertex 5.000000e+00 4.000000e-01 5.714286e+00
  vertex 5.000000e+00 4.000000e-01 7.142857e+00
 endloop
endfacet
facet normal 0.000000e+00 -1.000000e+00 0.000000e+00
 outer loop
  vertex 1.666667e+00 4.000000e-01 5.714286e+00
  vertex 5.000000e+00 4.000000e-01 7.142857e+00
  vertex 1.666667e+00 4.000000e-01 7.142857e+00
 endloop
endfacet
facet normal 0.000000e+00 1.000000e+00 0.000000e+00
 outer loop
  vertex 1.666667e+00 1.040000e+01 5.714286e+00
  vertex 5.000000e+00 1.040000e+01 7.142857e+00
  vertex 5.000000e+00 1.040000e+01 5.714286e+00
 endloop
endfacet
facet normal 0.000000e+00 1.000000e+00 0.000000e+00
 outer loop
  vertex 1.666667e+00 1.040000e+01 5.714286e+00
  vertex 1.666667e+00 1.040000e+01 7.142857e+00
  vertex 5.000000e+00 1.040000e+01 7.142857e+00
 endloop
endfacet
facet normal 1.000000e+00 0.000000e+00 -0.000000e+00
 outer loop
  vertex 5.000000e+00 3.733333e+00 5.714286e+00
  vertex 5.000000e+00 3.733333e+00 7.142857e+00
  vertex 5.000000e+00 4.000000e-01 5.714286e+00
 endloop
endfacet
facet normal 1.000000e+00 0.000000e+00 0.000000e+00
 outer loop
  vertex 5.000000e+00 4.000000e-01 5.714286e+00
  vertex 5.000000e+00 3.733333e+00 7.142857e+00
  vertex 5.000000e+00 4.000000e-01 7.142857e+00
 endloop
endfacet
facet normal 1.000000e+00 0.000000e+00 -0.000000e+00
 outer loop
  vertex 5.000000e+00 7.066667e+00 5.714286e+00
  vertex 5.000000e+00 7.066667e+00 7.142857e+00
  vertex 5.000000e+00 3.733333e+00 5.714286e+00
 endloop
endfacet
facet normal 1.000000e+00 0.000000e+00 0.000000e+00
 outer loop
  vertex 5.000000e+00 3.733333e+00 5.714286e+00
  vertex 5.000000e+00 7.066667e+00 7.142857e+00
  vertex 5.000000e+00 3.733333e+00 7.142857e+00
 endloop
endfacet
facet normal 1.000000e+00 0.000000e+00 -0.000000e+00
 outer loop
  vertex 5.000000e+00 1.040000e+01 5.714286e+00
  vertex 5.000000e+00 1.040000e+01 7.142857e+00
  vertex 5.000000e+00 7.066667e+00 5.714286e+00
 endloop
endfacet
facet normal 1.000000e+00 0.000000e+00 0.000000e+00
 outer loop
  vertex 5.000000e+00 7.066667e+00 5.714286e+00
  vertex 5.000000e+00 1.040000e+01 7.142857e+00
  vertex 5.000000e+00 7.066667e+00 7.142857e+00
 endloop
endfacet
facet normal -1.000000e+00 0.000000e+00 0.000000e+00
 outer loop
  vertex -5.000000e+00 3.733333e+00 7.142857e+00
  vertex -5.000000e+00 4.000000e-01 7.142857e+00
  vertex -5.000000e+00 3.733333e+00 8.571429e+00
 endloop
endfacet
facet normal 0.000000e+00 -1.000000e+00 0.000000e+00
 outer loop
  vertex -5.000000e+00 4.000000e-01 7.142857e+00
  vertex -1.666667e+00 4.000000e-01 7.142857e+00
  vertex -1.666667e+00 4.000000e-01 8.571429e+00
 endloop
endfacet
facet normal -1.000000e+00 0.000000e+00 0.000000e+00
 outer loop
  vertex -5.000000e+00 4.000000e-01 7.142857e+00
  vertex -5.000000e+00 4.000000e-01 8.571429e+00
  vertex -5.000000e+00 3.733333e+00 8.571429e+00
 endloop
endfacet
facet normal 0.000000e+00 -1.000000e+00 0.000000e+00
 outer loop
  vertex -5.000000e+00 4.000000e-01 7.142857e+00
  vertex -1.666667e+00 4.000000e-01 8.571429e+00
  vertex -5.000000e+00 4.000000e-01 8.571429e+00
 endloop
endfacet
facet normal -1.000000e+00 0.000000e+00 0.000000e+00
 outer loop
  vertex -5.000000e+00 7.066667e+00 7.142857e+00
  vertex -5.000000e+00 3.733333e+00 7.142857e+00
  vertex -5.000000e+00 7.066667e+00 8.571429e+00
 endloop
endfacet
facet normal -1.000000e+00 0.000000e+00 0.000000e+00
 outer loop
  vertex -5.000000e+00 3.733333e+00 7.142857e+00
  vertex -5.000000e+00 3.733333e+00 8.571429e+00
  vertex -5.000000e+00 7.066667e+00 8.571429e+00
 endloop
endfacet
facet normal -1.000000e+00 0.000000e+00 0.000000e+00
 outer loop
  vertex -5.000000e+00 1.040000e+01 7.142857e+00
  vertex -5.000000e+00 7.066667e+00 7.142857e+00
  vertex -5.000000e+00 1.040000e+01 8.571429e+00
 endloop
endfacet
facet normal -1.000000e+00 0.000000e+00 0.000000e+00
 outer loop
  vertex -5.000000e+00 7.066667e+00 7.142857e+00
  vertex -5.000000e+00 7.066667e+00 8.571429e+00
  vertex -5.000000e+00 1.040000e+01 8.571429e+00
 endloop
endfacet
facet normal 0.000000e+00 1.000000e+00 0.000000e+00
 outer loop
  vertex -5.000000e+00 1.040000e+01 7.142857e+00
  vertex -1.666667e+00 1.040000e+01 8.571429e+00
  vertex -1.666667e+00 1.040000e+01 7.142857e+00
 endloop
endfacet
facet normal 0.000000e+00 1.000000e+00 0.000000e+00
 outer loop
  vertex -5.000000e+00 1.040000e+01 7.142857e+00
  vertex -5.000000e+00 1.040000e+01 8.571429e+00
  vertex -1.666667e+00 1.040000e+01 8.571429e+00
 endloop
endfacet
facet normal 0.000000e+00 -1.000000e+00 0.000000e+00
 outer loop
  vertex -1.666667e+00 4.000000e-01 7.142857e+00
  vertex 1.666667e+00 4.000000e-01 7.142857e+00
  vertex 1.666667e+00 4.000000e-01 8.571429e+00
 endloop
endfacet
facet normal 0.000000e+00 -1.000000e+00 0.000000e+00
 outer loop
  vertex -1.666667e+00 4.000000e-01 7.142857e+00
  vertex 1.666667e+00 4.000000e-01 8.571429e+00
  vertex -1.666667e+00 4.000000e-01 8.571429e+00
 endloop
endfacet
facet normal 0.000000e+00 1.000000e+00 0.000000e+00
 outer loop
  vertex -1.666667e+00 1.040000e+01 7.142857e+00
  vertex 1.666667e+00 1.040000e+01 8.571429e+00
  vertex 1.666667e+00 1.040000e+01 7.142857e+00
 endloop
endfacet
facet normal 0.000000e+00 1.000000e+00 0.000000e+00
 outer loop
  vertex -1.666667e+00 1.040000e+01 7.142857e+00
  vertex -1.666667e+00 1.040000e+01 8.571429e+00
  vertex 1.666667e+00 1.040000e+01 8.571429e+00
 endloop
endfacet
facet normal 0.000000e+00 -1.000000e+00 0.000000e+00
 outer loop
  vertex 1.666667e+00 4.000000e-01 7.142857e+00
  vertex 5.000000e+00 4.000000e-01 7.142857e+00
  vertex 5.000000e+00 4.000000e-01 8.571429e+00
 endloop
endfacet
facet normal 0.000000e+00 -1.000000e+00 0.000000e+00
 outer loop
  vertex 1.666667e+00 4.000000e-01 7.142857e+00
  vertex 5.000000e+00 4.000000e-01 8.571429e+00
  vertex 1.666667e+00 4.000000e-01 8.571429e+00
 endloop
endfacet
facet normal 0.000000e+00 1.000000e+00 0.000000e+00
 outer loop
  vertex 1.666667e+00 1.040000e+01 7.142857e+00
  vertex 5.000000e+00 1.040000e+01 8.571429e+00
  vertex 5.000000e+00 1.040000e+01 7.142857e+00
 endloop
endfacet
facet normal 0.000000e+00 1.000000e+00 0.000000e+00
 outer loop
  vertex 1.666667e+00 1.040000e+01 7.142857e+00
  vertex 1.666667e+00 1.040000e+01 8.571429e+00
  vertex 5.000000e+00 1.040000e+01 8.571429e+00
 endloop
endfacet
facet normal 1.000000e+00 0.000000e+00 -0.000000e+00
 outer loop
  vertex 5.000000e+00 3.733333e+00 7.142857e+00
  vertex 5.000000e+00 3.733333e+00 8.571429e+00
  vertex 5.000000e+00 4.000000e-01 7.142857e+00
 endloop
endfacet
facet normal 1.000000e+00 0.000000e+00 0.000000e+00
 outer loop
  vertex 5.000000e+00 4.000000e-01 7.142857e+00
  vertex 5.000000e+00 3.733333e+00 8.571429e+00
  vertex 5.000000e+00 4.000000e-01 8.571429e+00
 endloop
endfacet
facet normal 1.000000e+00 0.000000e+00 -0.000000e+00
 outer loop
  vertex 5.000000e+00 7.066667e+00 7.142857e+00
  vertex 5.000000e+00 7.066667e+00 8.571429e+00
  vertex 5.000000e+00 3.733333e+00 7.142857e+00
 endloop
endfacet
facet normal 1.000000e+00 0.000000e+00 0.000000e+00
 outer loop
  vertex 5.000000e+00 3.733333e+00 7.142857e+00
  vertex 5.000000e+00 7.066667e+00 8.571429e+00
  vertex 5.000000e+00 3.733333e+00 8.571429e+00
 endloop
endfacet
facet normal 1.000000e+00 0.000000e+00 -0.000000e+00
 outer loop
  vertex 5.000000e+00 1.040000e+01 7.142857e+00
  vertex 5.000000e+00 1.040000e+01 8.571429e+00
  vertex 5.000000e+00 7.066667e+00 7.142857e+00
 endloop
endfacet
facet normal 1.000000e+00 0.000000e+00 0.000000e+00
 outer loop
  vertex 5.000000e+00 7.066667e+00 7.142857e+00
  vertex 5.000000e+00 1.040000e+01 8.571429e+00
  vertex 5.000000e+00 7.066667e+00 8.571429e+00
 endloop
endfacet
facet normal -1.000000e+00 0.000000e+00 0.000000e+00
 outer loop
  vertex -5.000000e+00 3.733333e+00 8.571429e+00
  vertex -5.000000e+00 4.000000e-01 8.571429e+00
  vertex -5.000000e+00 3.733333e+00 1.000000e+01
 endloop
endfacet
facet normal 0.000000e+00 -1.000000e+00 0.000000e+00
 outer loop
  vertex -5.000000e+00 4.000000e-01 8.571429e+00
  vertex -1.666667e+00 4.000000e-01 8.571429e+00
  vertex -1.666667e+00 4.000000e-01 1.000000e+01
 endloop
endfacet
facet normal -1.000000e+00 0.000000e+00 0.000000e+00
 outer loop
  vertex -5.000000e+00 4.000000e-01 8.571429e+00
  vertex -5.000000e+00 4.000000e-01 1.000000e+01
  vertex -5.000000e+00 3.733333e+00 1.000000e+01
 endloop
endfacet
facet normal 0.000000e+00 -1.000000e+00 0.000000e+00
 outer loop
  vertex -5.000000e+00 4.000000e-01 8.571429e+00
  vertex -1.666667e+00 4.000000e-01 1.000000e+01
  vertex -5.000000e+00 4.000000e-01 1.000000e+01
 endloop
endfacet
facet normal -1.000000e+00 0.000000e+00 0.000000e+00
 outer loop
  vertex -5.000000e+00 7.066667e+00 8.571429e+00
  vertex -5.000000e+00 3.733333e+00 8.571429e+00
  vertex -5.000000e+00 7.066667e+00 1.000000e+01
 endloop
endfacet
facet normal -1.000000e+00 0.000000e+00 0.000000e+00
 outer loop
  vertex -5.000000e+00 3.733333e+00 8.571429e+00
  vertex -5.000000e+00 3.733333e+00 1.000000e+01
  vertex -5.000000e+00 7.066667e+00 1.000000e+01
 endloop
endfacet
facet normal -1.000000e+00 0.000000e+00 0.000000e+00
 outer loop
  vertex -5.000000e+00 1.040000e+01 8.571429e+00
  vertex -5.000000e+00 7.066667e+00 8.571429e+00
  vertex -5.000000e+00 1.040000e+01 1.000000e+01
 endloop
endfacet
facet normal -1.000000e+00 0.000000e+00 0.000000e+00
 outer loop
  vertex -5.000000e+00 7.066667e+00 8.571429e+00
  vertex -5.000000e+00 7.066667e+00 1.000000e+01
  vertex -5.000000e+00 1.040000e+01 1.000000e+01
 endloop
endfacet
facet normal 0.000000e+00 1.000000e+00 0.000000e+00
 outer loop
  vertex -5.000000e+00 1.040000e+01 8.571429e+00
  vertex -1.666667e+00 1.040000e+01 1.000000e+01
  vertex -1.666667e+00 1.040000e+01 8.571429e+00
 endloop
endfacet
facet normal 0.000000e+00 1.000000e+00 0.000000e+00
 outer loop
  vertex -5.000000e+00 1.040000e+01 8.571429e+00
  vertex -5.000000e+00 1.040000e+01 1.000000e+01
  vertex -1.666667e+00 1.040000e+01 1.000000e+01
 endloop
endfacet
facet normal 0.000000e+00 -1.000000e+00 0.000000e+00
 outer loop
  vertex -1.666667e+00 4.000000e-01 8.571429e+00
  vertex 1.666667e+00 4.000000e-01 8.571429e+00
  vertex 1.666667e+00 4.000000e-01 1.000000e+01
 endloop
endfacet
facet normal 0.000000e+00 -1.000000e+00 0.000000e+00
 outer loop
  vertex -1.666667e+00 4.000000e-01 8.571429e+00
  vertex 1.666667e+00 4.000000e-01 1.000000e+01
  vertex -1.666667e+00 4.000000e-01 1.000000e+01
 endloop
endfacet
facet normal 0.000000e+00 1.000000e+00 0.000000e+00
 outer loop
  vertex -1.666667e+00 1.040000e+01 8.571429e+00
  vertex 1.666667e+00 1.040000e+01 1.000000e+01
  vertex 1.666667e+00 1.040000e+01 8.571429e+00
 endloop
endfacet
facet normal 0.000000e+00 1.000000e+00 0.000000e+00
 outer loop
  vertex -1.666667e+00 1.040000e+01 8.571429e+00
  vertex -1.666667e+00 1.040000e+01 1.000000e+01
  vertex 1.666667e+00 1.040000e+01 1.000000e+01
 endloop
endfacet
facet normal 0.000000e+00 -1.000000e+00 0.000000e+00
 outer loop
  vertex 1.666667e+00 4.000000e-01 8.571429e+00
  vertex 5.000000e+00 4.000000e-01 8.571429e+00
  vertex 5.000000e+00 4.000000e-01 1.000000e+01
 endloop
endfacet
facet normal 0.000000e+00 -1.000000e+00 0.000000e+00
 outer loop
  vertex 1.666667e+00 4.000000e-01 8.571429e+00
  vertex 5.000000e+00 4.000000e-01 1.000000e+01
  vertex 1.666667e+00 4.000000e-01 1.000000e+01
 endloop
endfacet
facet normal 0.000000e+00 1.000000e+00 0.000000e+00
 outer loop
  vertex 1.666667e+00 1.040000e+01 8.571429e+00
  vertex 5.000000e+00 1.040000e+01 1.000000e+01
  vertex 5.000000e+00 1.040000e+01 8.571429e+00
 endloop
endfacet
facet normal 0.000000e+00 1.000000e+00 0.000000e+00
 outer loop
  vertex 1.666667e+00 1.040000e+01 8.571429e+00
  vertex 1.666667e+00 1.040000e+01 1.000000e+01
  vertex 5.000000e+00 1.040000e+01 1.000000e+01
 endloop
endfacet
facet normal 1.000000e+00 0.000000e+00 -0.000000e+00
 outer loop
  vertex 5.000000e+00 3.733333e+00 8.571429e+00
  vertex 5.000000e+00 3.733333e+00 1.000000e+01
  vertex 5.000000e+00 4.000000e-01 8.571429e+00
 endloop
endfacet
facet normal 1.000000e+00 0.000000e+00 0.000000e+00
 outer loop
  vertex 5.000000e+00 4.000000e-01 8.571429e+00
  vertex 5.000000e+00 3.733333e+00 1.000000e+01
  vertex 5.000000e+00 4.000000e-01 1.000000e+01
 endloop
endfacet
facet normal 1.000000e+00 0.000000e+00 -0.000000e+00
 outer loop
  vertex 5.000000e+00 7.066667e+00 8.571429e+00
  vertex 5.000000e+00 7.066667e+00 1.000000e+01
  vertex 5.000000e+00 3.733333e+00 8.571429e+00
 endloop
endfacet
facet normal 1.000000e+00 0.000000e+00 0.000000e+00
 outer loop
  vertex 5.000000e+00 3.733333e+00 8.571429e+00
  vertex 5.000000e+00 7.066667e+00 1.000000e+01
  vertex 5.000000e+00 3.733333e+00 1.000000e+01
 endloop
endfacet
facet normal 1.000000e+00 0.000000e+00 -0.000000e+00
 outer loop
  vertex 5.000000e+00 1.040000e+01 8.571429e+00
  vertex 5.000000e+00 1.040000e+01 1.000000e+01
  vertex 5.000000e+00 7.066667e+00 8.571429e+00
 endloop
endfacet
facet normal 1.000000e+00 0.000000e+00 0.000000e+00
 outer loop
  vertex 5.000000e+00 7.066667e+00 8.571429e+00
  vertex 5.000000e+00 1.040000e+01 1.000000e+01
  vertex 5.000000e+00 7.066667e+00 1.000000e+01
 endloop
endfacet
facet normal 0.000000e+00 0.000000e+00 1.000000e+00
 outer loop
  vertex -1.666667e+00 3.733333e+00 1.000000e+01
  vertex -5.000000e+00 3.733333e+00 1.000000e+01
  vertex -5.000000e+00 4.000000e-01 1.000000e+01
 endloop
endfacet
facet normal 0.000000e+00 -0.000000e+00 1.000000e+00
 outer loop
  vertex -1.666667e+00 4.000000e-01 1.000000e+01
  vertex -1.666667e+00 3.733333e+00 1.000000e+01
  vertex -5.000000e+00 4.000000e-01 1.000000e+01
 endloop
endfacet
facet normal 0.000000e+00 0.000000e+00 1.000000e+00
 outer loop
  vertex -1.666667e+00 7.066667e+00 1.000000e+01
  vertex -5.000000e+00 7.066667e+00 1.000000e+01
  vertex -5.000000e+00 3.733333e+00 1.000000e+01
 endloop
endfacet
facet normal 0.000000e+00 -0.000000e+00 1.000000e+00
 outer loop
  vertex -1.666667e+00 3.733333e+00 1.000000e+01
  vertex -1.666667e+00 7.066667e+00 1.000000e+01
  vertex -5.000000e+00 3.733333e+00 1.000000e+01
 endloop
endfacet
facet normal 0.000000e+00 0.000000e+00 1.000000e+00
 outer loop
  vertex -1.666667e+00 1.040000e+01 1.000000e+01
  vertex -5.000000e+00 1.040000e+01 1.000000e+01
  vertex -5.000000e+00 7.066667e+00 1.000000e+01
 endloop
endfacet
facet normal 0.000000e+00 -0.000000e+00 1.000000e+00
 outer loop
  vertex -1.666667e+00 7.066667e+00 1.000000e+01
  vertex -1.666667e+00 1.040000e+01 1.000000e+01
  vertex -5.000000e+00 7.066667e+00 1.000000e+01
 endloop
endfacet
facet normal 0.000000e+00 0.000000e+00 1.000000e+00
 outer loop
  vertex 1.666667e+00 3.733333e+00 1.000000e+01
  vertex -1.666667e+00 3.733333e+00 1.000000e+01
  vertex -1.666667e+00 4.000000e-01 1.000000e+01
 endloop
endfacet
facet normal 0.000000e+00 -0.000000e+00 1.000000e+00
 outer loop
  vertex 1.666667e+00 4.000000e-01 1.000000e+01
  vertex 1.666667e+00 3.733333e+00 1.000000e+01
  vertex -1.666667e+00 4.000000e-01 1.000000e+01
 endloop
endfacet
facet normal 0.000000e+00 0.000000e+00 1.000000e+00
 outer loop
  vertex 1.666667e+00 7.066667e+00 1.000000e+01
  vertex -1.666667e+00 7.066667e+00 1.000000e+01
  vertex -1.666667e+00 3.733333e+00 1.000000e+01
 endloop
endfacet
facet normal 0.000000e+00 -0.000000e+00 1.000000e+00
 outer loop
  vertex 1.666667e+00 3.733333e+00 1.000000e+01
  vertex 1.666667e+00 7.066667e+00 1.000000e+01
  vertex -1.666667e+00 3.733333e+00 1.000000e+01
 endloop
endfacet
facet normal 0.000000e+00 0.000000e+00 1.000000e+00
 outer loop
  vertex 1.666667e+00 1.040000e+01 1.000000e+01
  vertex -1.666667e+00 1.040000e+01 1.000000e+01
  vertex -1.666667e+00 7.066667e+00 1.000000e+01
 endloop
endfacet
facet normal 0.000000e+00 -0.000000e+00 1.000000e+00
 outer loop
  vertex 1.666667e+00 7.066667e+00 1.000000e+01
  vertex 1.666667e+00 1.040000e+01 1.000000e+01
  vertex -1.666667e+00 7.066667e+00 1.000000e+01
 endloop
endfacet
facet normal 0.000000e+00 0.000000e+00 1.000000e+00
 outer loop
  vertex 5.000000e+00 3.733333e+00 1.000000e+01
  vertex 1.666667e+00 3.733333e+00 1.000000e+01
  vertex 1.666667e+00 4.000000e-01 1.000000e+01
 endloop
endfacet
facet normal 0.000000e+00 -0.000000e+00 1.000000e+00
 outer loop
  vertex 5.000000e+00 4.000000e-01 1.000000e+01
  vertex 5.000000e+00 3.733333e+00 1.000000e+01
  vertex 1.666667e+00 4.000000e-01 1.000000e+01
 endloop
endfacet
facet normal 0.000000e+00 0.000000e+00 1.000000e+00
 outer loop
  vertex 5.000000e+00 7.066667e+00 1.000000e+01
  vertex 1.666667e+00 7.066667e+00 1.000000e+01
  vertex 1.666667e+00 3.733333e+00 1.000000e+01
 endloop
endfacet
facet normal 0.000000e+00 -0.000000e+00 1.000000e+00
 outer loop
  vertex 5.000000e+00 3.733333e+00 1.000000e+01
  vertex 5.000000e+00 7.066667e+00 1.000000e+01
  vertex 1.666667e+00 3.733333e+00 1.000000e+01
 endloop
endfacet
facet normal 0.000000e+00 0.000000e+00 1.000000e+00
 outer loop
  vertex 5.000000e+00 1.040000e+01 1.000000e+01
  vertex 1.666667e+00 1.040000e+01 1.000000e+01
  vertex 1.666667e+00 7.066667e+00 1.000000e+01
 endloop
endfacet
facet normal 0.000000e+00 -0.000000e+00 1.000000e+00
 outer loop
  vertex 5.000000e+00 7.066667e+00 1.000000e+01
  vertex 5.000000e+00 1.040000e+01 1.000000e+01
  vertex 1.666667e+00 7.066667e+00 1.000000e+01
 endloop
endfacet
endsolid geometry
